<svg width="24" height="24" viewBox="0 0 24 24" fill="none" xmlns="http://www.w3.org/2000/svg">
<path d="M24 8.43814H19.7815V7.03195H21.1877V5.62575H19.3174L12.0005 0L4.6836 5.62575H2.81336V7.03195H4.21955V8.43814H0.000976562V9.84433H1.40717V24H22.5938V9.84433H24L24 8.43814ZM12.0005 1.77382L17.0104 5.6258H6.99064L12.0005 1.77382ZM18.3753 7.03195V16.969H5.62579V7.03195H18.3753ZM14.1098 19.7814H9.89124V18.3752H14.1098V19.7814ZM8.48505 22.5938H5.62579V18.3752H8.48505V22.5938ZM9.89124 21.1876H14.1098V22.5938H9.89124V21.1876ZM15.516 18.3752H18.3753V22.5938H15.516V18.3752ZM4.2196 9.84433V16.969H2.81341V9.84433H4.2196ZM2.81341 18.3752H4.2196V22.5938H2.81341V18.3752ZM19.7815 22.5938V18.3752H21.1877V22.5938H19.7815ZM21.1877 16.969H19.7815V9.84433H21.1877V16.969Z" fill="black"/>
<path d="M11.2977 14.0632V8.43848H7.03223V14.0632H11.2977ZM8.43842 9.84467H9.89148V12.6571H8.43842V9.84467Z" fill="black"/>
<path d="M16.9686 8.43848H12.7031V14.0632H16.9686V8.43848ZM15.5624 12.6571H14.1093V9.84467H15.5624V12.6571Z" fill="black"/>
</svg>