<svg width="24" height="24" viewBox="0 0 24 24" fill="none" xmlns="http://www.w3.org/2000/svg">
<path d="M22.3205 1.61051C21.1746 0.464643 19.6569 -0.10199 18.0465 0.0151069C16.3805 0.136246 14.7349 0.965371 13.2875 2.41274C11.8522 3.84803 11.0946 5.43958 11.0965 7.01533C11.0971 7.55004 11.1832 8.07677 11.3507 8.58793L10.2289 12.7049L1.89042 21.0434L1.06651 20.2195L0.0693359 21.2166L2.71419 23.8615L3.71136 22.8643L2.8876 22.0405L11.226 13.7021L15.3428 12.5802C15.8541 12.7477 16.3808 12.8338 16.9156 12.8344H16.9215C18.4953 12.8344 20.0848 12.0768 21.5182 10.6434C22.9656 9.19602 23.7947 7.55032 23.9159 5.88432C24.033 4.27421 23.4664 2.75637 22.3205 1.61051ZM22.3926 4.41937L20.7015 6.11047L19.7596 5.16853L21.7824 3.14569C22.0683 3.5422 22.2711 3.97035 22.3926 4.41937ZM22.4311 6.37522C22.3544 6.74019 22.2329 7.10854 22.0667 7.47568L21.6986 7.10765L22.4311 6.37522ZM15.6247 11.1874C15.2147 11.0338 14.8142 10.8051 14.427 10.5011L16.1958 8.73229L17.1377 9.67428L15.6247 11.1874ZM18.1349 10.6715L18.5293 11.0658C18.1586 11.2281 17.7878 11.3352 17.4195 11.3869L18.1349 10.6715ZM12.7435 8.30635L14.2567 6.79322L15.1986 7.73516L13.4299 9.50392C13.1258 9.11677 12.8971 8.71621 12.7435 8.30635ZM12.544 6.5115C12.5957 6.14319 12.7028 5.77235 12.8651 5.40164L13.2595 5.79604L12.544 6.5115ZM19.5109 1.53901C19.96 1.66043 20.388 1.86346 20.7845 2.14931L18.7624 4.1714L17.8204 3.22946L19.5109 1.53901ZM16.8233 2.23228L16.4554 1.86444C16.8227 1.69818 17.1911 1.5761 17.5561 1.49947L16.8233 2.23228ZM17.7652 5.16858L16.1958 6.73798L15.2539 5.79604L16.8233 4.22663L17.7652 5.16858ZM17.193 7.73516L18.7624 6.16576L19.7043 7.1077L18.1349 8.6771L17.193 7.73516ZM15.2061 2.60947L15.8261 3.2295L14.2567 4.79891L13.6183 4.16045C13.8145 3.90853 14.0366 3.65807 14.2847 3.40997C14.5849 3.10973 14.8931 2.84301 15.2061 2.60947ZM11.8645 12.0665L12.3245 10.3782C12.4992 10.6011 12.6916 10.8183 12.9022 11.0288C13.1126 11.2392 13.3298 11.4317 13.5527 11.6064L11.8645 12.0665ZM19.7705 10.3126L19.1321 9.67423L20.7015 8.10483L21.3216 8.72486C21.088 9.03789 20.8212 9.34602 20.521 9.64622C20.2728 9.89437 20.0224 10.1164 19.7705 10.3126Z" fill="black"/>
<path d="M18.0961 15.6443C17.6951 15.2434 17.162 15.0225 16.5949 15.0225C16.0278 15.0225 15.4947 15.2433 15.0937 15.6443L14.2035 16.5345L10.7475 18.5653L9.73535 20.5896L13.1456 23.9997L15.1247 23.0446L17.2049 19.538L18.0961 18.6468C18.4971 18.2458 18.718 17.7127 18.718 17.1456C18.718 16.5785 18.4971 16.0453 18.0961 15.6443C18.0962 15.6443 18.0962 15.6443 18.0961 15.6443ZM16.091 16.6415C16.2255 16.5069 16.4045 16.4327 16.5949 16.4327C16.7854 16.4327 16.9643 16.5069 17.0989 16.6415L17.099 16.6416C17.2336 16.7761 17.3078 16.9551 17.3078 17.1456C17.3078 17.336 17.2336 17.5149 17.099 17.6496L16.6438 18.1048L15.6357 17.0968L16.091 16.6415ZM14.1288 21.9594L13.4346 22.2944L12.9389 21.7987L13.8236 20.914L12.8264 19.9168L11.9417 20.8016L11.4513 20.3111L11.822 19.5695L14.5255 17.981L15.7578 19.2134L14.1288 21.9594Z" fill="black"/>
</svg>