<svg width="24" height="20" viewBox="0 0 24 20" fill="none" xmlns="http://www.w3.org/2000/svg">
<path d="M8.48438 14.3647H0V15.771H8.48438V14.3647Z" fill="black"/>
<path d="M4.26562 11.5522H0V12.9585H4.26562V11.5522Z" fill="black"/>
<path d="M2.85938 8.73975H0V10.146H2.85938V8.73975Z" fill="black"/>
<path d="M9.1872 0.0109863L2.63379 6.56435L7.42938 12.9585H9.14346C10.1547 12.9585 10.9494 14.3806 11.7908 15.8862C12.8656 17.8097 14.0838 19.9893 16.3419 19.9893H23.9997L23.9997 16.474C23.9997 14.5307 22.3809 12.9585 20.4373 12.9585H19.4764C18.6109 11.0134 18.2569 8.50685 18.341 6.35233L16.3573 4.36853L14.3493 5.3725C13.7586 5.66786 13.0533 5.66786 12.4626 5.3725C11.7433 5.01292 11.2966 4.29002 11.2966 3.48588V2.12036L9.1872 0.0109863ZM11.8337 6.63035C12.8182 7.12258 13.9937 7.12258 14.9782 6.63035L16.0796 6.07961L16.9154 6.91544C16.913 7.27952 16.924 7.9286 17.0027 8.73967H13.4059V10.1459H17.1927C17.2716 10.5971 17.3724 11.0703 17.5008 11.5522H14.8122V12.9584H17.9548C18.0264 13.1443 18.1028 13.3296 18.1845 13.5137L17.1275 14.5706L18.1219 15.565L19.3221 14.3647H20.4373C21.606 14.3647 22.5934 15.3306 22.5934 16.474L22.5934 18.5835H16.3419C14.9089 18.5835 13.9478 16.8636 13.0184 15.2003C12.0162 13.4068 10.9799 11.5522 9.14351 11.5522H8.13251L4.4906 6.69635L9.1872 1.99975L9.89032 2.70288V3.48592C9.89032 4.82608 10.635 6.031 11.8337 6.63035Z" fill="black"/>
</svg>