<svg width="24" height="24" viewBox="0 0 24 24" fill="none" xmlns="http://www.w3.org/2000/svg">
<g clip-path="url(#clip0_708_7684)">
<path d="M20.7484 19.5454L16.9972 9.04194H11.9531V4.51949L5.99806 0L0.0429688 4.51949V24H1.44968V13.4496H3.04396V24H4.45067V22.4526H7.54544V24H8.95216V13.4496H10.5464V24H11.9531V13.4496H13.7551L17.5063 23.9531H23.9571V19.5454H20.7484ZM9.15956 4.16533H2.83656L5.99806 1.76599L9.15956 4.16533ZM1.44968 12.0429V5.57204H10.5464V12.0429H8.95216V10.1204C8.95216 8.49154 7.62694 7.16632 5.99806 7.16632C4.36918 7.16632 3.04396 8.49154 3.04396 10.1204V12.0429H1.44968ZM4.45067 12.0429V10.1204C4.45067 9.2672 5.14484 8.57303 5.99806 8.57303C6.85128 8.57303 7.54544 9.2672 7.54544 10.1204V12.0429H4.45067ZM4.45067 16.4506H7.54544V18.0449H4.45067V16.4506ZM4.45067 21.0459V19.4516H7.54544V21.0459H4.45067ZM7.54544 15.0439H4.45067V13.4496H7.54544V15.0439ZM22.5504 22.5464H18.4977L14.7465 12.0429H11.9531V10.4487H16.0058L19.7571 20.9521H22.5504V22.5464Z" fill="black"/>
</g>
<defs>
<clipPath id="clip0_708_7684">
<rect width="24" height="24" fill="white"/>
</clipPath>
</defs>
</svg>