<svg width="24" height="24" viewBox="0 0 24 24" fill="none" xmlns="http://www.w3.org/2000/svg">
<g clip-path="url(#clip0_708_7654)">
<path d="M21.715 8.94516C21.1064 7.60144 20.2027 6.51103 19.2141 5.43773C18.7735 6.14967 18.3637 7.01437 17.6607 7.4947C16.6648 8.17514 15.2817 7.9822 14.5159 7.04916C13.8414 6.23475 13.6363 5.11247 13.9805 4.12012C14.4763 2.6903 14.2146 1.39767 13.8146 0H12.8709C12.1965 1.22419 11.0192 2.1255 9.71516 2.60016C7.29041 3.7927 5.66587 6.27202 5.55252 8.97431C4.73751 8.40572 4.07549 7.69228 3.40668 6.9667C2.63545 8.21827 1.94319 9.50419 1.6124 10.9477C1.27246 12.4307 1.25296 13.9858 1.55301 15.4773C2.54113 20.3895 6.99969 24.0001 12.0014 24.0001C16.409 24.0001 20.4715 21.2025 22.0011 17.059C22.9664 14.4441 22.8648 11.4841 21.715 8.94516ZM14.3866 21.0764C13.9038 21.9635 13.0311 22.5938 11.9999 22.5938C9.44423 22.5938 8.5409 19.3034 9.68976 17.4087L12.0011 13.151L14.305 17.395C14.9743 18.5157 15.0124 19.9267 14.3866 21.0764ZM15.5437 21.8863C16.4703 20.3091 16.4723 18.2833 15.5337 16.711L12.0011 10.2035L8.46834 16.711C7.52999 18.283 7.53173 20.3082 8.45774 21.8853C5.11518 20.4899 2.75287 17.1855 2.74771 13.3532C2.7456 11.9339 3.0674 10.5422 3.68451 9.27984C4.38102 9.91191 5.1554 10.4475 5.99619 10.8776L7.2044 11.4958C6.93688 9.94017 6.80038 8.38777 7.44674 6.89414C8.16571 5.23312 9.43912 4.34869 11.0019 3.57769C11.6897 3.23995 12.321 2.79698 12.8727 2.2687C12.8804 2.72902 12.8014 3.22823 12.6518 3.65934C12.0247 5.46727 12.6719 7.67681 14.3106 8.72583C15.9818 9.79575 18.2076 9.32873 19.3815 7.75805C19.7975 8.30677 20.1501 8.89842 20.434 9.52533C20.9916 10.7565 21.2674 12.0714 21.2539 13.4338C21.2161 17.2412 18.861 20.5033 15.5437 21.8863Z" fill="black"/>
</g>
<defs>
<clipPath id="clip0_708_7654">
<rect width="24" height="24" fill="white"/>
</clipPath>
</defs>
</svg>