<svg
  width="24"
  height="24"
  viewBox="0 0 24 24"
  fill="none"
  xmlns="http://www.w3.org/2000/svg"
>
  <g clip-path="url(#clip0)">
    <path
      d="M14.1094 2.84473H9.89062V5.65723H7.07812V21.126H16.9219V5.65723H14.1094V2.84473ZM11.2969 4.25098H12.7031V5.65723H11.2969V4.25098ZM15.5156 19.7197H8.48438V7.06348H15.5156V19.7197Z"
      fill="black"
    />
    <path
      d="M11.2969 12.6885H12.7031V11.2822H14.1094V9.87598H12.7031V8.46973H11.2969V9.87598H9.89062V11.2822H11.2969V12.6885Z"
      fill="black"
    />
    <path
      d="M9.89062 15.501H14.1094V16.9072H9.89062V15.501Z"
      fill="black"
    />
    <path
      d="M23.9997 11.9858C23.9997 10.315 23.6614 8.69826 22.9943 7.18049C22.3501 5.71476 21.4316 4.41107 20.2644 3.30566L19.2974 4.3267C21.4228 6.33955 22.5934 9.05962 22.5934 11.9858C22.5934 14.464 21.7207 16.8445 20.1582 18.7257V17.6401H18.752V21.1557H22.2676V19.7495H21.1335C22.9707 17.5985 23.9997 14.8499 23.9997 11.9858Z"
      fill="black"
    />
    <path
      d="M1.66819 4.28023H2.81681C1.01123 6.42293 0 9.15073 0 11.9854C0 13.6562 0.33825 15.2729 1.00533 16.7906C1.64953 18.2564 2.56805 19.5601 3.73523 20.6655L4.70222 19.6444C2.57681 17.6315 1.40625 14.9115 1.40625 11.9854C1.40625 9.54438 2.25563 7.19266 3.77756 5.32338V6.38965H5.18381V2.87402H1.66819V4.28023Z"
      fill="black"
    />
  </g>
  <defs>
    <clipPath id="clip0">
      <rect width="24" height="24" fill="white" />
    </clipPath>
  </defs>
</svg>
