<svg width="24" height="24" viewBox="0 0 24 24" fill="none" xmlns="http://www.w3.org/2000/svg">
<g clip-path="url(#clip0_708_7564)">
<path d="M15.1066 0C10.2036 0 6.2147 3.98888 6.2147 8.89183C6.2147 9.15255 6.22642 9.41346 6.24911 9.67291H4.54056V11.439C3.64974 12.1754 3.12793 13.2705 3.12793 14.4397C3.12793 16.5867 4.87459 18.3334 7.02161 18.3334C8.45608 18.3334 9.71093 17.5531 10.3864 16.3952C11.8308 17.2951 13.4779 17.7838 15.1066 17.7838C20.0096 17.7838 23.9985 13.7949 23.9985 8.89192C23.9985 3.98898 20.0095 0 15.1066 0ZM7.02156 16.9247C5.65126 16.9247 4.53653 15.8099 4.53653 14.4396C4.53653 13.675 4.88692 12.9603 5.48176 12.4901H8.56141C9.15621 12.9603 9.50665 13.675 9.50665 14.4396C9.5066 15.8099 8.39186 16.9247 7.02156 16.9247ZM15.1066 16.3751C13.642 16.3751 12.1537 15.9001 10.8704 15.0303C10.8999 14.8377 10.9152 14.6404 10.9152 14.4397C10.9152 13.2706 10.3933 12.1753 9.50252 11.4389V9.67291H7.66431C7.63741 9.41402 7.62335 9.15288 7.62335 8.89183C7.62339 4.76556 10.9804 1.4086 15.1066 1.4086C19.2329 1.4086 22.5898 4.7656 22.5898 8.89183C22.5898 13.0181 19.2328 16.3751 15.1066 16.3751Z" fill="black"/>
<path d="M11.8295 10.8321V9.59645H14.0405V5.54199H10.4296V6.95059H12.6319V8.18781H10.4209V12.2408H14.0517V10.8321H11.8295Z" fill="black"/>
<path d="M18.2752 5.53027V8.00045H16.8666V5.53027H15.458V9.40905H18.2752V12.2506H19.6838V5.53027H18.2752Z" fill="black"/>
<path d="M9.45971 18.7148H4.5832C2.05705 18.7148 0.00195312 20.77 0.00195312 23.2961V24.0004H14.0409V23.2961C14.0409 20.77 11.9859 18.7148 9.45971 18.7148ZM1.48935 22.5919C1.81049 21.1803 3.07574 20.1235 4.58324 20.1235H9.45971C10.9672 20.1235 12.2325 21.1803 12.5536 22.5919H1.48935Z" fill="black"/>
</g>
<defs>
<clipPath id="clip0_708_7564">
<rect width="24" height="24" fill="white"/>
</clipPath>
</defs>
</svg>