<svg width="20" height="24" viewBox="0 0 20 24" fill="none" xmlns="http://www.w3.org/2000/svg">
<path d="M14.51 0H0.859375V24H19.1406V4.63064L14.51 0ZM14.9219 2.40061L16.74 4.21875H14.9219V2.40061ZM17.7344 22.5938H2.26562V1.40625H13.5156V5.625H17.7344V22.5938Z" fill="black"/>
<path d="M10 7.07812C6.51067 7.07812 3.67188 9.91692 3.67188 13.4062C3.67188 16.8956 6.51067 19.7344 10 19.7344C13.4893 19.7344 16.3281 16.8956 16.3281 13.4062C16.3281 9.91692 13.4893 7.07812 10 7.07812ZM10 18.3281C7.28608 18.3281 5.07812 16.1202 5.07812 13.4062C5.07812 10.6923 7.28608 8.48438 10 8.48438C12.7139 8.48438 14.9219 10.6923 14.9219 13.4062C14.9219 16.1202 12.7139 18.3281 10 18.3281Z" fill="black"/>
<path d="M12.3145 11.5027L9.29598 14.5212L7.68377 12.9089L6.68945 13.9033L9.29598 16.5099L13.3088 12.4971L12.3145 11.5027Z" fill="black"/>
</svg>