<svg width="20" height="24" viewBox="0 0 20 24" fill="none" xmlns="http://www.w3.org/2000/svg">
<path d="M16.6313 17.2393C16.6313 17.2393 15.6079 18.3819 15.1222 19.0576C14.6627 19.6968 14.0518 20.6373 14.0518 21.4209C14.0518 22.8433 15.209 24.0005 16.6313 24.0005C18.0537 24.0005 19.2109 22.8433 19.2109 21.4209C19.2109 20.6373 18.6 19.6968 18.1405 19.0576C17.6548 18.3819 16.6313 17.2393 16.6313 17.2393ZM16.6313 22.5942C15.9843 22.5942 15.458 22.0678 15.458 21.4208C15.458 21.1193 15.9124 20.2932 16.6313 19.3836C17.3504 20.2934 17.8046 21.1194 17.8046 21.4208C17.8046 22.0678 17.2783 22.5942 16.6313 22.5942Z" fill="black"/>
<path d="M16.9672 7.90392H8.3426V5.19689C9.50651 4.57402 10.3004 3.3465 10.3004 1.93664V0H8.36374C7.13412 0 6.04352 0.604219 5.37138 1.53075C4.6992 0.604219 3.60865 0 2.37902 0H0.442383V1.93664C0.442383 3.3465 1.23621 4.57402 2.40016 5.19689V24H8.3426V12.5665H13.2242V15.6022H19.558V10.4947L16.9672 7.90392ZM8.3637 1.40625H8.89409V1.93664C8.89409 3.19894 7.86715 4.22583 6.60485 4.22583H6.07446V3.69544C6.07446 2.43319 7.1014 1.40625 8.3637 1.40625ZM1.84863 1.40625H2.37902C3.64127 1.40625 4.66821 2.43319 4.66821 3.69544V4.22583H4.13782C2.87552 4.22583 1.84863 3.19889 1.84863 1.93664V1.40625ZM6.93635 5.63212V7.90392H3.80641V5.63212H6.93635ZM3.80637 22.5938V9.31017H6.93631V22.5938H3.80637ZM8.3426 9.31017H16.3847L18.1517 11.0772V11.1603H8.3426V9.31017ZM14.6304 14.196V12.5665H18.1517V14.196H14.6304Z" fill="black"/>
</svg>