<svg width="18" height="24" viewBox="0 0 18 24" fill="none" xmlns="http://www.w3.org/2000/svg">
<path d="M17.2464 1.58212C17.0629 1.42022 15.2723 0 9 0C2.7277 0 0.937078 1.42022 0.753562 1.58212L0.515625 1.79208V24H17.4844V1.79208L17.2464 1.58212ZM9 1.40625C13.4893 1.40625 15.442 2.16736 16.0781 2.49792V5.625H1.92188V2.49792C2.55802 2.16736 4.51069 1.40625 9 1.40625ZM11.1094 19.7812H6.89062V18.375H11.1094V19.7812ZM6.89062 21.1875H11.1094V22.5938H6.89062V21.1875ZM12.5156 22.5938V16.9688H5.48438V22.5938H1.92188V7.03125H16.0781V22.5938H12.5156Z" fill="black"/>
</svg>